<svg xmlns="http://www.w3.org/2000/svg" width="4381" height="795" fill-rule="evenodd" xmlns:v="https://vecta.io/nano"><path d="M219.932 461.997c49.116 0 88.932-39.823 88.932-88.947s-39.816-88.947-88.932-88.947S131 323.927 131 373.05s39.816 88.947 88.932 88.947zM460.663 702c49.116 0 88.932-39.823 88.932-88.947s-39.816-88.947-88.932-88.947-88.932 39.823-88.932 88.947S411.547 702 460.663 702zm235.291-49.114c47.46 8.672 97.586-111.053 47.46-133.841-58.884-26.77-94.92 125.17-47.46 133.841zm-432.458-499.56c27.534-8.419 63.095-31.931 54.676-59.469s-45.265-26.424-72.8-18.005-70.259 33.714-61.839 61.253 52.429 24.64 79.963 16.221zM486.478 41.389c-8.418-27.539-64.436-34.442-91.97-26.023-9.528 2.913-22.691 8.869-20.677 14.435 1.62 4.478 19.831 12.884 43.897 17.457 32.471 6.17 72.602 6.73 68.75-5.87zm322.451 420.293c15.878-3.98 10.968-116.471-15.17-109.696-16.024 4.153-12.326 116.588 15.17 109.696zm-32.974-199.327c12.373-5.356-38.767-90.747-50.167-81.727s37.794 87.083 50.167 81.727zM655.543 112.089c10.932-11.248-75.741-62.254-81.757-52.176s70.825 63.425 81.757 52.176z" fill="#005895"/><g fill="#02b151"><path d="M550.776 35.601c0 2.716-13.831.789-14.748 5.177-.579 2.771 13.262 15.055 16.637 17.564 3.81 2.832 16.332 7.362 26.691 13.927a222.2 222.2 0 0 1 19.6 14.016 12.36 12.36 0 0 1 .873.796l.278.278c4.333 4.387 15.823 18.678 13.618 27.038-1.656 6.28-6.878 9.478-12.037 12.599l-.658.398c-4.333 2.627-8.657 5.695-9.545 7.438-1.51 2.965 1.279 11.723 7.471 21.233 1.677 2.576 4.492 6.18 8.445 10.811 9.733 9.727 22.881 18.632 34.529 9.781 3.209-2.439 6.23-14.923.839-24.54-1.447-2.581-3.13-5.1-4.842-7.546l-.571-.812c-7.626-10.793-15.357-20.085-4.881-26.679 2.067-1.301 5.303-2.112 9.456-.721 6.073 2.034 14.805 8.247 25.097 13.788 3.362 1.81 5.914 3.012 11.141 3.253 4.277.197 4.282-.791 4.142-1.849l-.019-.141c-.016-.118-.032-.236-.041-.353l-.008-.14-.001-.069c0-2.47-1.914-7.028-4.896-11.784-2.894-4.616-7.731-9.317-10.318-13.987 6.252-2.587 30.992 21.054 45.58 39.056 7.783 9.605 12.025 19.403 10.582 21.241-2.58 3.285-23.365-25.625-26.817-13.851-.903 3.081 4.826 10.668 10.303 21.557 1.191 2.367 3.519 5.385 4.615 8.052 6.14 14.934 1.982 21.585-3.171 21.585s-20.155-7.86-39.828-17.051c-8.018-3.746-12.385 5.308-14.114 8.48-1.586 8.36.203 19.026 11.552 30.578 26.664 27.141 38.52 11.025 39.279 5.988 1.41-9.364 5.448-15.18 17.103-12.76 3.765.782 13.903 5.378 17.864 11.247 2.552 3.781 12.525 16.034 22.02 29.855l.669.978.716 1.056.357.53.711 1.063.354.533.704 1.068 3.753 5.904c4.05 6.599 9.428 17.352 13.216 21.683 4.998 5.715 8.658 3.472 8.945 3.13.734-.875.56-3.041.292-5.416l-.05-.434-.07-.601-.046-.402-.067-.603-.041-.4c-.406-4.052-.297-7.658 4.26-5.58 4.029 3.09 19.793 39.307 21.674 51.07 3.11 19.44 6.301 33.723 0 33.723-6.76 0-17.675-63.016-34.898-56.432-3.09 1.181-4.733 5.534-6.582 10.127l-.272.673-.112.275-.226.55c-2.545 6.135-5.772 12.132-13.574 11.084-14.301-1.92-33.438-28.932-56.701-62.447-4.181-6.024-30.796-18.614-34.654-7.622-.7 1.994-1.298 4.012-1.838 6.02.713 4.745 1.765 10.578 3.981 16.594 3.304 8.968 17.022 27.813 26.325 34.545 13.04 9.436 28.595 5.667 36.3 9.858 44.87 24.407 38.069 106.322 38.58 111.828 1.162 12.518 14.006 46.068 18.34 53.623 1.764 3.075 8.249 5.208 19.454 6.399 2.123 16.809 2.123 32.201 0 46.177-4.649 30.61-25.327 67.598-29.957 61.499-5.224-6.881-5.224-34.369 0-82.463-3.021-14.84-5.633-24.809-7.836-29.907-4.755-11.001-11.029-18.584-14.226-19.851-7.483-2.965-25.383-7.605-38.275-17.077-11.244-8.261-17.733-20.733-22.379-32.079-2.227-5.438-9.286-47.355-7.417-75.068.396-5.865-3.552-16.844-11.844-32.938-10.945-11.35-19.931-18.747-26.956-22.193-1.423.344-3.01.525-4.786.525-6.39 0-11.789 5.38-16.196 16.141-.845 5.818-.996 12.509.078 20.246 4.265 30.738 34.57 53.687 41.938 64.188 28.604 40.769 21.958 89.309-19.938 145.619-8.471 10.864-13.732 18.888-15.782 24.073-6.991 17.683-6.82 68.261-6.218 81.206.245 5.269 1.779 12.313 4.603 21.13l2.186 2.057c17.695 17.439 18.877 39.043 3.548 64.811-23.908 40.187-78.994 64.212-106.676 41.989-25.848-20.751-8.657-57.037 51.574-108.858 13.231-44.372 19.385-71.12 18.462-80.245-3.253-32.161-9.407-51.214-18.462-57.16-38.564-45.28-46.224-85.799-22.979-121.555 8.347-12.84 22.979-31.416 41.441-49.601 3.286-3.236 4.918-10.351 4.897-21.344-4.427-21.944-9.773-36.888-16.039-44.834a17.39 17.39 0 0 1-2.251-1.14c-3.922-2.352-7.907-4.275-11.845-5.35-.435.091-.874.207-1.315.346-1.964.62-2.333.163-1.473-.962-2.503-.418-4.975-.447-7.388.02-30.732 5.955-35.763 52.531-34.892 55.731 4.16 15.278 7.213 29.477 4.443 45.312-10.755 61.476-53.793 89.061-129.114 82.754-31.279 11.761-54.786 26.283-70.521 43.564-10.549 11.585-22.64 34.494-36.274 68.725 6.284 57.825-9.494 91.541-47.336 101.147-56.762 14.409-118.568-33.001-118.568-85.356 0-56.345 39.523-81.265 118.568-74.762 34.183-16.851 54.826-29.773 61.93-38.766 27.376-34.66 41.461-59.822 42.255-75.486-7.047-74.69 15.971-114.758 69.054-120.204 21.965-2.254 41.253-1.34 57.196 5.179 2.163.884 14.9.719 34.881-9.256 4.945-2.469 11.697-8.943 20.254-19.421 5.154-18.732.001-32.123-15.46-40.174-1.775-.924-2.976-2.132-3.699-3.565l-.513-.072-1.026-.141-.513-.069-1.023-.134c-9.365-1.207-18.24-1.869-21.02-2.246-24.432-3.32-38.068 6.233-39.459 8.769-6.642 12.11-23.129 26.071-34.458 34.328-33.061 24.098-71.258 26.008-106.792 2.758-7.824-5.119-18.846-16.224-33.067-33.315-21.226-6.102-42.01-8.501-62.35-7.197-13.636.874-35.405 6.225-65.307 16.055-36.567 52.029-69.632 69.585-99.196 52.668-44.346-25.376 27.482-120.334 67.514-117.158 19.848 1.575 30.409 7.414 31.682 17.519 28.329 5.224 47.446 7.168 57.35 5.832 38.17-5.15 66.471-15.362 84.903-30.637 45.61-38.183 88.977-41.431 130.102-9.746 4.071 3.136 7.824 6.641 11.492 10.205l1.098 1.071 1.094 1.072 1.092 1.072.495.486.99.97.495.484.992.964.994.958c7.632 7.32 15.563 14.011 25.903 17.27 4.599 1.449 14.725 2.095 30.38 1.936 15.799-1.918 26.377-5.588 31.733-11.012-1.091-1.525-1.457-3.066-.916-4.559 1.645-4.539-30.067-29.924-35.518-33.505l-8.739-5.841-.675-.45c-4.774-3.171-5.839-3.541-9.628-3.56l-.352-.001c-5.88 0-37.742 6.483-89.11-12.686-7.233-2.699-18.563-9.84-24.903-22.769-2.435-4.966-4.067-14.697-4.895-29.191-8.253-7.279-14.865-12.439-19.837-15.479s-11.61-5.985-19.917-8.833c-6.49-1.681-12.675-2.167-18.554-1.456-39.167 4.733-58.219 12.359-77.972 0C208.928 38.39 303.028 8.55 329.86 17.806c1.505 3.137 2.258 8.822 2.258 17.055 6.692 6.576 15.14 10.728 25.344 12.456s25.44 3.209 45.71 4.443c23.609 1.32 45.464 5.56 65.567 12.72 14.644 5.216 23.375 12.315 33.645 27.317 7.17 10.474 2.921 14.594 2.921 25.991 0 5.704 6.096 14.568 18.287 26.593 23.46 16.68 39.139 22.391 47.036 17.131l-.237-.122c-.509-.26-.122-.281.657-.467l.212-.053c.108-.028.221-.059.338-.094a10.59 10.59 0 0 0 1.483-1.562c.348-.449.954-.634 1.759-.59 2.016-2.597 2.965-8.14-1.759-20.317-3.632-9.362-16.235-22.338-35.49-33.956-2.569-1.55-35.208-12.554-38.16-41.038-.904-8.721 7.745-12.19 25.946-10.408-2.731-6.539-6.115-11.291-10.153-14.257-20.419-14.997-34.155-19.386-52.025-26.347-2.18-12.885 68.715 5.619 87.577 23.3z"/><path d="M1055.543 318.367h41.27c20.635 0 35.642 9.767 35.642 30.521 0 20.347-14.632 27.672-42.02 27.672h-34.892v-58.193zm27.013 122.49c41.27 0 47.273 12.615 47.273 50.868 0 26.044 2.251 44.764 4.502 51.275H1224v-8.953c-10.505 0-9.38-13.022-9.38-51.275 0-59.007-17.258-66.332-45.772-77.726 31.515-9.36 45.397-37.846 45.397-71.622 0-56.972-29.639-83.424-119.683-83.424H967v293h88.543V440.857h27.013zm244.823-27.319c0-22.744 13.189-36.958 36.552-36.958 18.464 0 34.668 17.464 34.668 36.958h-71.22zm149.599 43.051c1.13-77.166-42.958-131.588-116.062-131.588C1297.61 325 1249 369.675 1249 439.531c0 71.48 48.987 110.469 112.294 110.469 45.973 0 95.713-17.464 109.279-70.262h-74.988c-5.652 12.59-16.957 18.682-29.392 18.682-20.725 0-38.813-16.652-38.813-41.832h149.599zM1506 545h78.091V436.02c0-27.347 6.382-44.082 30.411-44.082 22.151 0 27.407 18.776 27.407 40V545H1720V416.837c0-58.776-24.404-91.837-76.214-91.837-29.66 0-48.807 13.878-66.453 39.592v-33.469H1506V545zm323.379-131.462c0-22.744 13.189-36.958 36.552-36.958 18.464 0 34.668 17.464 34.668 36.958h-71.22zm149.599 43.051c1.13-77.166-42.958-131.588-116.062-131.588C1799.61 325 1751 369.675 1751 439.531c0 71.48 48.987 110.469 112.294 110.469 45.973 0 95.713-17.464 109.279-70.262h-74.988c-5.652 12.59-16.957 18.682-29.392 18.682-20.725 0-38.813-16.652-38.813-41.832h149.599zM2203.302 331h-66.341l-30.532 132.321h-.754L2075.519 331H1999l65.211 214h76.519l27.517-125.378h.754L2199.532 545h76.519L2339 331h-74.257l-30.532 132.321h-.754zM2585 543.908v-4.061c-10.153-8.935-10.529-15.027-10.529-27.211v-99.504c0-50.767-5.64-88.132-98.895-88.132-77.837 0-107.544 26.399-107.544 71.48h75.205c1.88-18.276 16.545-20.713 27.45-20.713 8.273 0 25.57 2.031 25.57 17.464 0 39.801-140.258-4.061-140.258 92.599 0 44.269 33.09 64.17 70.317 64.17 29.33 0 51.892-6.498 74.077-28.836l3.76 22.744H2585zm-123.337-41.832c-15.417 0-24.818-7.31-24.818-17.87 0-27.617 33.842-21.119 59.412-34.522 1.88 29.242-7.145 52.392-34.594 52.392zM2693.31 251H2615v292.898h70.404v-30.103h.753c9.789 20.34 27.86 36.205 60.615 36.205 64.38 0 89.228-50.85 89.228-113.905 0-64.275-35.39-111.464-85.84-111.464-23.342 0-41.414 8.136-56.85 27.663V251zm31.249 237.98c-25.601 0-33.131-28.883-33.131-51.664 0-21.967 9.412-47.189 33.131-47.189 25.225 0 33.131 26.035 33.131 48.816 0 23.188-7.53 50.037-33.131 50.037zM2949 543V250h-78v293zm115.379-129.462c0-22.744 13.189-36.958 36.552-36.958 18.464 0 34.668 17.464 34.668 36.958h-71.22zm149.599 43.051c1.13-77.166-42.958-131.588-116.062-131.588C3034.61 325 2986 369.675 2986 439.531c0 71.48 48.987 110.469 112.294 110.469 45.973 0 95.713-17.464 109.279-70.262h-74.988c-5.652 12.59-16.957 18.682-29.392 18.682-20.725 0-38.813-16.652-38.813-41.832h149.599zm262.492-120.644C3470.069 284.58 3435.805 243 3360.5 243c-67.774 0-117.476 31.389-117.476 93.76 0 112.104 155.881 81.53 155.881 125.964 0 13.86-14.684 21.606-36.899 21.606-8.66 0-18.073-2.446-25.227-7.338-7.53-4.892-12.802-12.637-14.684-23.236H3237c1.883 52.995 48.572 98.244 120.111 98.244C3431.663 552 3484 518.98 3484 450.902c0-106.805-155.881-79.492-155.881-123.518 0-10.599 8.66-16.714 28.239-16.714 8.66 0 16.567 1.631 22.968 5.299s11.296 9.784 12.802 19.975h84.341zm132.408 131.363L3650.993 543H3745l-82.35-130.629 72.949-82.61h-91.374l-50.012 65.111V250H3516v293h78.213v-59.821zM3850 544V330.571h-78V544h78zm-78-240.719h78V243h-78v60.281zM3975 543V250h-78v293zm124 0V250h-78v293zm38-65.292c4.138 57.265 53.789 72.292 98.927 72.292 72.22 0 106.073-30.054 106.073-74.323 0-79.603-124.505-59.702-124.505-89.35 0-10.56 8.651-15.027 22.193-15.027 6.018 0 11.661 1.625 15.798 5.28s6.771 8.529 7.523 15.433h71.092c-4.514-56.453-54.917-67.013-97.798-67.013-41 0-93.284 15.839-93.284 70.262 0 82.446 120.743 55.235 120.743 89.35 0 15.027-12.789 19.088-24.826 19.088-7.523 0-14.294-2.437-19.183-6.498-5.266-4.468-8.275-10.966-8.275-19.495H4137z" fill-rule="nonzero"/></g></svg>